<svg width="24" height="24" viewBox="0 0 24 24" fill="none" xmlns="http://www.w3.org/2000/svg">
<g id="Icon find with photo">
<g id="Vector">
<path d="M11.9964 17.8883C14.7558 17.8883 16.9927 15.6747 16.9927 12.9441C16.9927 12.2775 16.8594 11.6416 16.6176 11.0612L15.3387 11.8431C15.4373 12.1829 15.4892 12.5517 15.4892 12.9441C15.4892 14.9953 14.0691 16.4005 11.9964 16.4005C10.9556 16.4005 10.0794 16.0462 9.46486 15.4338L8.22757 16.1902C9.14354 17.2307 10.4923 17.8883 11.9964 17.8883Z" fill="#1D1D1D"/>
<path d="M7.31099 14.6651C7.10988 14.1291 7 13.5493 7 12.9441C7 10.2136 9.23694 8 11.9964 8C13.4371 8 14.7355 8.60347 15.6473 9.56892L14.3982 10.3325C13.7928 9.79526 12.966 9.48775 11.9964 9.48775C9.92356 9.48775 8.50346 10.893 8.50346 12.9441C8.50346 13.2708 8.53948 13.5811 8.60842 13.8719L7.31099 14.6651Z" fill="#1D1D1D"/>
<path d="M9.94799 2L12 2V3.27834L9.948 3.27835C9.46292 3.27835 8.98525 3.68983 8.8463 4.32826C8.50424 5.89997 7.69021 6.88684 6.6383 7.45067C5.61983 7.99656 4.4411 8.11236 3.40254 8.09367C2.76236 8.08215 2.2811 8.55301 2.2811 9.09228V16H1V9.09228C1 7.74035 2.17084 6.79295 3.42564 6.81553C4.37803 6.83267 5.29757 6.7182 6.03207 6.32451C6.73312 5.94875 7.32675 5.28671 7.59439 4.05697C7.82352 3.00414 8.69865 2.00001 9.94799 2Z" fill="#1D1D1D"/>
<path d="M14.052 3.27834L14 3.27834V2H14.052C15.3013 2 16.1765 3.00414 16.4056 4.05697C16.6732 5.28671 17.2669 5.94875 17.9679 6.32451C18.7024 6.7182 19.622 6.83267 20.5744 6.81553C21.8004 6.79347 22.9463 7.69745 22.9982 9H21.7142C21.663 8.50044 21.2008 8.08281 20.5975 8.09367C19.5589 8.11236 18.3802 7.99656 17.3617 7.45066C16.3098 6.88684 15.4958 5.89997 15.1537 4.32826C15.0147 3.68982 14.5371 3.27834 14.052 3.27834Z" fill="#1D1D1D"/>
<path d="M21.7189 11V18.7803C21.7189 19.3002 21.2965 19.7217 20.7755 19.7217H17V21H20.7755C22.0041 21 23 20.0062 23 18.7803V11H21.7189Z" fill="#1D1D1D"/>
<path d="M15 21V19.7217L3.22446 19.7217C2.70346 19.7217 2.2811 19.3002 2.2811 18.7803V18H1V18.7803C1 20.0062 1.99592 21 3.22446 21L15 21Z" fill="#1D1D1D"/>
<path d="M11.9964 17.8883C14.7558 17.8883 16.9927 15.6747 16.9927 12.9441C16.9927 12.2775 16.8594 11.6416 16.6176 11.0612L15.3387 11.8431C15.4373 12.1829 15.4892 12.5517 15.4892 12.9441C15.4892 14.9953 14.0691 16.4005 11.9964 16.4005C10.9556 16.4005 10.0794 16.0462 9.46486 15.4338L8.22757 16.1902C9.14354 17.2307 10.4923 17.8883 11.9964 17.8883Z" stroke="#1D1D1D" stroke-width="0.5"/>
<path d="M7.31099 14.6651C7.10988 14.1291 7 13.5493 7 12.9441C7 10.2136 9.23694 8 11.9964 8C13.4371 8 14.7355 8.60347 15.6473 9.56892L14.3982 10.3325C13.7928 9.79526 12.966 9.48775 11.9964 9.48775C9.92356 9.48775 8.50346 10.893 8.50346 12.9441C8.50346 13.2708 8.53948 13.5811 8.60842 13.8719L7.31099 14.6651Z" stroke="#1D1D1D" stroke-width="0.5"/>
<path d="M9.94799 2L12 2V3.27834L9.948 3.27835C9.46292 3.27835 8.98525 3.68983 8.8463 4.32826C8.50424 5.89997 7.69021 6.88684 6.6383 7.45067C5.61983 7.99656 4.4411 8.11236 3.40254 8.09367C2.76236 8.08215 2.2811 8.55301 2.2811 9.09228V16H1V9.09228C1 7.74035 2.17084 6.79295 3.42564 6.81553C4.37803 6.83267 5.29757 6.7182 6.03207 6.32451C6.73312 5.94875 7.32675 5.28671 7.59439 4.05697C7.82352 3.00414 8.69865 2.00001 9.94799 2Z" stroke="#1D1D1D" stroke-width="0.5"/>
<path d="M14.052 3.27834L14 3.27834V2H14.052C15.3013 2 16.1765 3.00414 16.4056 4.05697C16.6732 5.28671 17.2669 5.94875 17.9679 6.32451C18.7024 6.7182 19.622 6.83267 20.5744 6.81553C21.8004 6.79347 22.9463 7.69745 22.9982 9H21.7142C21.663 8.50044 21.2008 8.08281 20.5975 8.09367C19.5589 8.11236 18.3802 7.99656 17.3617 7.45066C16.3098 6.88684 15.4958 5.89997 15.1537 4.32826C15.0147 3.68982 14.5371 3.27834 14.052 3.27834Z" stroke="#1D1D1D" stroke-width="0.5"/>
<path d="M21.7189 11V18.7803C21.7189 19.3002 21.2965 19.7217 20.7755 19.7217H17V21H20.7755C22.0041 21 23 20.0062 23 18.7803V11H21.7189Z" stroke="#1D1D1D" stroke-width="0.5"/>
<path d="M15 21V19.7217L3.22446 19.7217C2.70346 19.7217 2.2811 19.3002 2.2811 18.7803V18H1V18.7803C1 20.0062 1.99592 21 3.22446 21L15 21Z" stroke="#1D1D1D" stroke-width="0.5"/>
</g>
</g>
</svg>
