<svg width="21" height="20" viewBox="0 0 21 20" fill="none" xmlns="http://www.w3.org/2000/svg">
<g id="dots-horizontal">
<g id="Icon">
<path d="M10.5241 10.8332C10.9843 10.8332 11.3574 10.4601 11.3574 9.99984C11.3574 9.5396 10.9843 9.1665 10.5241 9.1665C10.0639 9.1665 9.69075 9.5396 9.69075 9.99984C9.69075 10.4601 10.0639 10.8332 10.5241 10.8332Z" fill="#1D1D1D"/>
<path d="M16.3574 10.8332C16.8177 10.8332 17.1908 10.4601 17.1908 9.99984C17.1908 9.5396 16.8177 9.1665 16.3574 9.1665C15.8972 9.1665 15.5241 9.5396 15.5241 9.99984C15.5241 10.4601 15.8972 10.8332 16.3574 10.8332Z" fill="#1D1D1D"/>
<path d="M4.69076 10.8332C5.15099 10.8332 5.52409 10.4601 5.52409 9.99984C5.52409 9.5396 5.15099 9.1665 4.69076 9.1665C4.23052 9.1665 3.85742 9.5396 3.85742 9.99984C3.85742 10.4601 4.23052 10.8332 4.69076 10.8332Z" fill="#1D1D1D"/>
<path d="M10.5241 10.8332C10.9843 10.8332 11.3574 10.4601 11.3574 9.99984C11.3574 9.5396 10.9843 9.1665 10.5241 9.1665C10.0639 9.1665 9.69075 9.5396 9.69075 9.99984C9.69075 10.4601 10.0639 10.8332 10.5241 10.8332Z" stroke="white" stroke-width="2" stroke-linecap="round" stroke-linejoin="round"/>
<path d="M16.3574 10.8332C16.8177 10.8332 17.1908 10.4601 17.1908 9.99984C17.1908 9.5396 16.8177 9.1665 16.3574 9.1665C15.8972 9.1665 15.5241 9.5396 15.5241 9.99984C15.5241 10.4601 15.8972 10.8332 16.3574 10.8332Z" stroke="white" stroke-width="2" stroke-linecap="round" stroke-linejoin="round"/>
<path d="M4.69076 10.8332C5.15099 10.8332 5.52409 10.4601 5.52409 9.99984C5.52409 9.5396 5.15099 9.1665 4.69076 9.1665C4.23052 9.1665 3.85742 9.5396 3.85742 9.99984C3.85742 10.4601 4.23052 10.8332 4.69076 10.8332Z" stroke="white" stroke-width="2" stroke-linecap="round" stroke-linejoin="round"/>
</g>
</g>
</svg>
