<svg width="25" height="24" viewBox="0 0 25 24" fill="none" xmlns="http://www.w3.org/2000/svg">
<g id="Icon-for-buttons">
<path id="apply-color-here" fill-rule="evenodd" clip-rule="evenodd" d="M13.5 2V3V12.5858L16.7929 9.29289L17.5 8.58579L18.9142 10L18.2071 10.7071L13.2071 15.7071L12.5 16.4142L11.7929 15.7071L6.7929 10.7071L6.08579 10L7.50001 8.58579L8.20711 9.29289L11.5 12.5858V3V2H13.5ZM4.50001 14V15V18.5076C4.50001 18.8042 4.50078 18.9664 4.51031 19.083C4.51069 19.0877 4.51107 19.092 4.51145 19.0962C4.5156 19.0966 4.52 19.097 4.52464 19.0973C4.64122 19.1069 4.80348 19.1076 5.10001 19.1076H19.9C20.1965 19.1076 20.3588 19.1069 20.4754 19.0973C20.48 19.097 20.4844 19.0966 20.4886 19.0962C20.4889 19.092 20.4893 19.0877 20.4897 19.083C20.4992 18.9664 20.5 18.8042 20.5 18.5076V15V14H22.5V15V18.5076L22.5 18.5396C22.5 18.7919 22.5001 19.0377 22.4831 19.2459C22.4644 19.4745 22.4203 19.7442 22.282 20.0156C22.0903 20.392 21.7843 20.6979 21.408 20.8897C21.1366 21.028 20.8668 21.072 20.6382 21.0907C20.4301 21.1077 20.1843 21.1077 19.9319 21.1077L19.9 21.1076H5.10001L5.06809 21.1077C4.81571 21.1077 4.56993 21.1077 4.36178 21.0907C4.13318 21.072 3.86345 21.028 3.59202 20.8897C3.2157 20.6979 2.90974 20.392 2.71799 20.0156C2.57969 19.7442 2.53563 19.4745 2.51695 19.2459C2.49994 19.0377 2.49997 18.7919 2.5 18.5395L2.50001 18.5076V15V14H4.50001Z" fill="#A6A6A6"/>
</g>
</svg>
