<svg width="24" height="24" viewBox="0 0 24 24" fill="none" xmlns="http://www.w3.org/2000/svg">
<g id="Inbox">
<path id="Vector" d="M20.7474 10.4555L20.7428 10.4367L18.1131 3.75469C17.9959 3.37734 17.6467 3.11719 17.2506 3.11719H6.59119C6.19275 3.11719 5.83885 3.38203 5.72635 3.76406L3.26775 10.3781L3.26072 10.3945L3.25604 10.4133C3.22557 10.5281 3.21619 10.6453 3.2326 10.7602C3.23025 10.7977 3.22791 10.8352 3.22791 10.8727V19.4484C3.22853 19.8262 3.37886 20.1883 3.64597 20.4554C3.91307 20.7225 4.27517 20.8728 4.65291 20.8734H19.3529C20.1381 20.8734 20.7779 20.2336 20.7803 19.4484V10.8727C20.7803 10.8422 20.7803 10.8117 20.7779 10.7859C20.7873 10.6711 20.7779 10.5609 20.7474 10.4555ZM13.8146 9.44766L13.8076 9.81562C13.7888 10.868 13.0623 11.5758 12.0006 11.5758C11.4826 11.5758 11.0373 11.4094 10.7162 11.093C10.3951 10.7766 10.2193 10.3359 10.2099 9.81562L10.2029 9.44766H5.37947L7.24275 4.91719H16.599L18.5138 9.44766H13.8146ZM5.02557 11.2477H8.71229C9.28182 12.5859 10.4935 13.3758 12.0029 13.3758C12.7928 13.3758 13.5263 13.1555 14.1193 12.7383C14.6396 12.3727 15.0451 11.8617 15.3076 11.2477H18.9756V19.0734H5.02557V11.2477Z" fill="#1890FF"/>
</g>
</svg>
