<svg width="45" height="45" viewBox="0 0 45 45" fill="none" xmlns="http://www.w3.org/2000/svg">
<path d="M45 22.5C45 34.9264 34.9264 45 22.5 45C10.0736 45 0 34.9264 0 22.5C0 10.0736 10.0736 0 22.5 0C34.9264 0 45 10.0736 45 22.5Z" fill="#F57979"/>
<path d="M9.94095 22.4351C9.94095 21.1805 10.958 20.1634 12.2126 20.1634L20.1634 20.1634L24.7067 20.1634L32.6575 20.1634C33.9121 20.1634 34.9291 21.1805 34.9291 22.4351C34.9291 23.6897 33.9121 24.7067 32.6575 24.7067L24.7067 24.7067L20.1634 24.7067L12.2126 24.7067C10.958 24.7067 9.94095 23.6897 9.94095 22.4351Z" fill="white"/>
</svg>
