<svg width="206" height="27" viewBox="0 0 206 27" fill="none" xmlns="http://www.w3.org/2000/svg">
<path d="M22.6962 1.064C25.0109 1.064 26.8122 1.74533 28.1002 3.108C29.3882 4.452 30.0322 6.40267 30.0322 8.96V21H25.4962V9.1C25.4962 7.71867 25.1322 6.68267 24.4042 5.992C23.6949 5.28267 22.7522 4.928 21.5762 4.928C20.2882 4.928 19.2616 5.30133 18.4962 6.048C17.7309 6.776 17.3482 7.88667 17.3482 9.38V21H12.8122V9.1C12.8122 7.71867 12.4762 6.68267 11.8042 5.992C11.1322 5.28267 10.2176 4.928 9.06022 4.928C7.79089 4.928 6.77355 5.30133 6.00822 6.048C5.24289 6.776 4.86022 7.88667 4.86022 9.38V21H0.324219V1.4H4.72022V3.808C5.31755 2.93067 6.11089 2.25867 7.10022 1.792C8.08955 1.30667 9.22822 1.064 10.5162 1.064C11.8602 1.064 13.0362 1.316 14.0442 1.82C15.0522 2.30533 15.8269 3.01467 16.3682 3.948C17.0402 3.01467 17.9176 2.30533 19.0002 1.82C20.1016 1.316 21.3336 1.064 22.6962 1.064Z" fill="#141414"/>
<path d="M49.3719 5.936V18.48C49.3719 21.2427 48.6719 23.296 47.2719 24.64C45.8719 25.984 43.8372 26.656 41.1679 26.656C39.7492 26.656 38.4052 26.4787 37.1359 26.124C35.8852 25.7693 34.8306 25.256 33.9719 24.584L35.7079 21.448C36.3426 21.9707 37.1172 22.3813 38.0319 22.68C38.9466 22.9787 39.8706 23.128 40.8039 23.128C42.2599 23.128 43.3239 22.792 43.9959 22.12C44.6679 21.448 45.0039 20.4213 45.0039 19.04V18.536C44.4439 19.096 43.7812 19.5253 43.0159 19.824C42.2506 20.1227 41.4292 20.272 40.5519 20.272C38.5732 20.272 37.0052 19.712 35.8479 18.592C34.6906 17.4533 34.1119 15.7547 34.1119 13.496V5.936H38.4799V12.852C38.4799 15.2973 39.4972 16.52 41.5319 16.52C42.5772 16.52 43.4172 16.184 44.0519 15.512C44.6866 14.8213 45.0039 13.804 45.0039 12.46V5.936H49.3719Z" fill="#141414"/>
<path d="M59.9478 21.336C58.3985 21.336 56.8958 21.1307 55.4398 20.72C54.0025 20.2907 52.8451 19.74 51.9678 19.068L53.5078 15.652C54.3478 16.268 55.3465 16.7627 56.5038 17.136C57.6611 17.5093 58.8185 17.696 59.9758 17.696C61.2638 17.696 62.2158 17.5093 62.8318 17.136C63.4478 16.744 63.7558 16.2307 63.7558 15.596C63.7558 15.1293 63.5691 14.7467 63.1958 14.448C62.8411 14.1307 62.3745 13.8787 61.7958 13.692C61.2358 13.5053 60.4705 13.3 59.4998 13.076C58.0065 12.7213 56.7838 12.3667 55.8318 12.012C54.8798 11.6573 54.0585 11.088 53.3678 10.304C52.6958 9.52 52.3598 8.47467 52.3598 7.168C52.3598 6.02933 52.6678 5.00267 53.2838 4.088C53.8998 3.15467 54.8238 2.41733 56.0558 1.876C57.3065 1.33467 58.8278 1.064 60.6198 1.064C61.8705 1.064 63.0931 1.21333 64.2878 1.512C65.4825 1.81067 66.5278 2.24 67.4238 2.8L66.0238 6.244C64.2131 5.21733 62.4025 4.704 60.5918 4.704C59.3225 4.704 58.3798 4.90933 57.7638 5.32C57.1665 5.73067 56.8678 6.272 56.8678 6.944C56.8678 7.616 57.2131 8.12 57.9038 8.456C58.6131 8.77333 59.6865 9.09067 61.1238 9.408C62.6171 9.76267 63.8398 10.1173 64.7918 10.472C65.7438 10.8267 66.5558 11.3867 67.2278 12.152C67.9185 12.9173 68.2638 13.9533 68.2638 15.26C68.2638 16.38 67.9465 17.4067 67.3118 18.34C66.6958 19.2547 65.7625 19.9827 64.5118 20.524C63.2611 21.0653 61.7398 21.336 59.9478 21.336Z" fill="#141414"/>
<path d="M86.3433 5.936V21H82.1713V19.264C81.0886 20.5707 79.5206 21.224 77.4673 21.224C76.0486 21.224 74.7606 20.9067 73.6033 20.272C72.4646 19.6373 71.5686 18.732 70.9153 17.556C70.2619 16.38 69.9353 15.0173 69.9353 13.468C69.9353 11.9187 70.2619 10.556 70.9153 9.38C71.5686 8.204 72.4646 7.29867 73.6033 6.664C74.7606 6.02933 76.0486 5.712 77.4673 5.712C79.39 5.712 80.8926 6.31867 81.9753 7.532V5.936H86.3433ZM78.2233 17.64C79.3246 17.64 80.2393 17.2667 80.9673 16.52C81.6953 15.7547 82.0593 14.7373 82.0593 13.468C82.0593 12.1987 81.6953 11.1907 80.9673 10.444C80.2393 9.67867 79.3246 9.296 78.2233 9.296C77.1033 9.296 76.1793 9.67867 75.4513 10.444C74.7233 11.1907 74.3593 12.1987 74.3593 13.468C74.3593 14.7373 74.7233 15.7547 75.4513 16.52C76.1793 17.2667 77.1033 17.64 78.2233 17.64Z" fill="#141414"/>
<path d="M94.6433 6.272H98.5073V9.632H94.7553V21H90.3873V5.6C90.3873 3.88267 90.8913 2.52 91.8993 1.512C92.926 0.504 94.3633 0 96.2113 0C96.8646 0 97.4806 0.0746668 98.0593 0.224C98.6566 0.354668 99.1513 0.550668 99.5433 0.812001L98.3953 3.976C97.8913 3.62133 97.3033 3.444 96.6313 3.444C95.306 3.444 94.6433 4.172 94.6433 5.628V6.272Z" fill="#141414"/>
<path d="M108.092 17.724C108.876 17.724 109.567 17.612 110.164 17.388C110.78 17.1453 111.35 16.772 111.872 16.268L114.197 18.788C112.778 20.412 110.706 21.224 107.98 21.224C106.282 21.224 104.779 20.8973 103.473 20.244C102.166 19.572 101.158 18.648 100.449 17.472C99.7392 16.296 99.3845 14.9613 99.3845 13.468C99.3845 11.9933 99.7298 10.668 100.421 9.492C101.13 8.29733 102.091 7.37333 103.304 6.72C104.536 6.048 105.918 5.712 107.449 5.712C108.886 5.712 110.192 6.02 111.368 6.636C112.544 7.23333 113.478 8.11067 114.169 9.268C114.878 10.4067 115.232 11.76 115.232 13.328L104.089 15.484C104.406 16.2307 104.901 16.7907 105.573 17.164C106.263 17.5373 107.103 17.724 108.092 17.724ZM107.449 9.016C106.347 9.016 105.451 9.37067 104.76 10.08C104.07 10.7893 103.706 11.7693 103.669 13.02L111.005 11.592C110.799 10.808 110.379 10.1827 109.744 9.716C109.11 9.24933 108.345 9.016 107.449 9.016Z" fill="#141414"/>
<path d="M124.917 21.336C123.367 21.336 121.865 21.1307 120.409 20.72C118.971 20.2907 117.814 19.74 116.937 19.068L118.477 15.652C119.317 16.268 120.315 16.7627 121.473 17.136C122.63 17.5093 123.787 17.696 124.945 17.696C126.233 17.696 127.185 17.5093 127.801 17.136C128.417 16.744 128.725 16.2307 128.725 15.596C128.725 15.1293 128.538 14.7467 128.165 14.448C127.81 14.1307 127.343 13.8787 126.765 13.692C126.205 13.5053 125.439 13.3 124.469 13.076C122.975 12.7213 121.753 12.3667 120.801 12.012C119.849 11.6573 119.027 11.088 118.337 10.304C117.665 9.52 117.329 8.47467 117.329 7.168C117.329 6.02933 117.637 5.00267 118.253 4.088C118.869 3.15467 119.793 2.41733 121.025 1.876C122.275 1.33467 123.797 1.064 125.589 1.064C126.839 1.064 128.062 1.21333 129.257 1.512C130.451 1.81067 131.497 2.24 132.393 2.8L130.993 6.244C129.182 5.21733 127.371 4.704 125.561 4.704C124.291 4.704 123.349 4.90933 122.733 5.32C122.135 5.73067 121.837 6.272 121.837 6.944C121.837 7.616 122.182 8.12 122.873 8.456C123.582 8.77333 124.655 9.09067 126.093 9.408C127.586 9.76267 128.809 10.1173 129.761 10.472C130.713 10.8267 131.525 11.3867 132.197 12.152C132.887 12.9173 133.233 13.9533 133.233 15.26C133.233 16.38 132.915 17.4067 132.281 18.34C131.665 19.2547 130.731 19.9827 129.481 20.524C128.23 21.0653 126.709 21.336 124.917 21.336Z" fill="#141414"/>
<path d="M144.928 5.712C146.328 5.712 147.597 6.03867 148.736 6.692C149.893 7.32667 150.799 8.232 151.452 9.408C152.105 10.5653 152.432 11.9187 152.432 13.468C152.432 15.0173 152.105 16.38 151.452 17.556C150.799 18.7133 149.893 19.6187 148.736 20.272C147.597 20.9067 146.328 21.224 144.928 21.224C143.005 21.224 141.493 20.6173 140.392 19.404V26.432H136.024V5.936H140.196V7.672C141.279 6.36533 142.856 5.712 144.928 5.712ZM144.172 17.64C145.292 17.64 146.207 17.2667 146.916 16.52C147.644 15.7547 148.008 14.7373 148.008 13.468C148.008 12.1987 147.644 11.1907 146.916 10.444C146.207 9.67867 145.292 9.296 144.172 9.296C143.052 9.296 142.128 9.67867 141.4 10.444C140.691 11.1907 140.336 12.1987 140.336 13.468C140.336 14.7373 140.691 15.7547 141.4 16.52C142.128 17.2667 143.052 17.64 144.172 17.64Z" fill="#141414"/>
<path d="M170.644 5.936V21H166.472V19.264C165.389 20.5707 163.821 21.224 161.768 21.224C160.349 21.224 159.061 20.9067 157.904 20.272C156.765 19.6373 155.869 18.732 155.216 17.556C154.563 16.38 154.236 15.0173 154.236 13.468C154.236 11.9187 154.563 10.556 155.216 9.38C155.869 8.204 156.765 7.29867 157.904 6.664C159.061 6.02933 160.349 5.712 161.768 5.712C163.691 5.712 165.193 6.31867 166.276 7.532V5.936H170.644ZM162.524 17.64C163.625 17.64 164.54 17.2667 165.268 16.52C165.996 15.7547 166.36 14.7373 166.36 13.468C166.36 12.1987 165.996 11.1907 165.268 10.444C164.54 9.67867 163.625 9.296 162.524 9.296C161.404 9.296 160.48 9.67867 159.752 10.444C159.024 11.1907 158.66 12.1987 158.66 13.468C158.66 14.7373 159.024 15.7547 159.752 16.52C160.48 17.2667 161.404 17.64 162.524 17.64Z" fill="#141414"/>
<path d="M181.968 21.224C180.363 21.224 178.916 20.8973 177.628 20.244C176.359 19.572 175.36 18.648 174.632 17.472C173.923 16.296 173.568 14.9613 173.568 13.468C173.568 11.9747 173.923 10.64 174.632 9.464C175.36 8.288 176.359 7.37333 177.628 6.72C178.916 6.048 180.363 5.712 181.968 5.712C183.555 5.712 184.936 6.048 186.112 6.72C187.307 7.37333 188.175 8.316 188.716 9.548L185.328 11.368C184.544 9.98667 183.415 9.296 181.94 9.296C180.801 9.296 179.859 9.66933 179.112 10.416C178.365 11.1627 177.992 12.18 177.992 13.468C177.992 14.756 178.365 15.7733 179.112 16.52C179.859 17.2667 180.801 17.64 181.94 17.64C183.433 17.64 184.563 16.9493 185.328 15.568L188.716 17.416C188.175 18.6107 187.307 19.544 186.112 20.216C184.936 20.888 183.555 21.224 181.968 21.224Z" fill="#141414"/>
<path d="M198.628 17.724C199.412 17.724 200.102 17.612 200.7 17.388C201.316 17.1453 201.885 16.772 202.408 16.268L204.732 18.788C203.313 20.412 201.241 21.224 198.516 21.224C196.817 21.224 195.314 20.8973 194.008 20.244C192.701 19.572 191.693 18.648 190.984 17.472C190.274 16.296 189.92 14.9613 189.92 13.468C189.92 11.9933 190.265 10.668 190.956 9.492C191.665 8.29733 192.626 7.37333 193.84 6.72C195.072 6.048 196.453 5.712 197.984 5.712C199.421 5.712 200.728 6.02 201.904 6.636C203.08 7.23333 204.013 8.11067 204.704 9.268C205.413 10.4067 205.768 11.76 205.768 13.328L194.624 15.484C194.941 16.2307 195.436 16.7907 196.108 17.164C196.798 17.5373 197.638 17.724 198.628 17.724ZM197.984 9.016C196.882 9.016 195.986 9.37067 195.296 10.08C194.605 10.7893 194.241 11.7693 194.204 13.02L201.54 11.592C201.334 10.808 200.914 10.1827 200.28 9.716C199.645 9.24933 198.88 9.016 197.984 9.016Z" fill="#141414"/>
</svg>
