<svg width="45" height="45" viewBox="0 0 45 45" fill="none" xmlns="http://www.w3.org/2000/svg">
<path d="M45 22.5C45 34.9264 34.9264 45 22.5 45C10.0736 45 0 34.9264 0 22.5C0 10.0736 10.0736 0 22.5 0C34.9264 0 45 10.0736 45 22.5Z" fill="white"/>
<path fill-rule="evenodd" clip-rule="evenodd" d="M10.0059 22.5C10.0059 21.2454 11.0229 20.2283 12.2775 20.2283L20.2283 20.2283L20.2283 12.2776C20.2283 11.023 21.2454 10.0059 22.5 10.0059C23.7546 10.0059 24.7716 11.023 24.7716 12.2776L24.7716 20.2283L32.7224 20.2283C33.977 20.2283 34.9941 21.2454 34.9941 22.5C34.9941 23.7546 33.977 24.7717 32.7224 24.7717L24.7716 24.7717L24.7716 32.7224C24.7716 33.977 23.7546 34.9941 22.5 34.9941C21.2454 34.9941 20.2283 33.977 20.2283 32.7224L20.2283 24.7717L12.2775 24.7717C11.0229 24.7717 10.0059 23.7546 10.0059 22.5Z" fill="#72B0F8"/>
</svg>
