<svg width="231" height="45" viewBox="0 0 231 45" fill="none" xmlns="http://www.w3.org/2000/svg">
<rect width="231" height="45" rx="22.5" fill="#35DCE0"/>
<path d="M77.1136 16.3636V28H75.7045V17.6136H69.8409V28H68.4318V16.3636H77.1136ZM79.7741 31.2727V19.2727H81.0696V20.6591H81.2287C81.3272 20.5076 81.4635 20.3144 81.6378 20.0795C81.8158 19.8409 82.0696 19.6288 82.3991 19.4432C82.7325 19.2538 83.1832 19.1591 83.7514 19.1591C84.4863 19.1591 85.134 19.3428 85.6946 19.7102C86.2552 20.0777 86.6927 20.5985 87.0071 21.2727C87.3215 21.947 87.4787 22.7424 87.4787 23.6591C87.4787 24.5833 87.3215 25.3845 87.0071 26.0625C86.6927 26.7367 86.2571 27.2595 85.7003 27.6307C85.1435 27.9981 84.5014 28.1818 83.7741 28.1818C83.2135 28.1818 82.7647 28.089 82.4276 27.9034C82.0904 27.714 81.831 27.5 81.6491 27.2614C81.4673 27.0189 81.3272 26.8182 81.2287 26.6591H81.1151V31.2727H79.7741ZM81.0923 23.6364C81.0923 24.2955 81.1889 24.8769 81.3821 25.3807C81.5753 25.8807 81.8575 26.2727 82.2287 26.5568C82.5999 26.8371 83.0545 26.9773 83.5923 26.9773C84.1529 26.9773 84.6207 26.8295 84.9957 26.5341C85.3745 26.2348 85.6586 25.8333 85.848 25.3295C86.0412 24.822 86.1378 24.2576 86.1378 23.6364C86.1378 23.0227 86.0431 22.4697 85.8537 21.9773C85.6681 21.4811 85.3859 21.089 85.0071 20.8011C84.6321 20.5095 84.1605 20.3636 83.5923 20.3636C83.0469 20.3636 82.5885 20.5019 82.2173 20.7784C81.8461 21.0511 81.5658 21.4337 81.3764 21.9261C81.187 22.4148 81.0923 22.9848 81.0923 23.6364ZM93.0696 28.1818C92.2817 28.1818 91.5904 27.9943 90.9957 27.6193C90.4048 27.2443 89.9427 26.7197 89.6094 26.0455C89.2798 25.3712 89.1151 24.5833 89.1151 23.6818C89.1151 22.7727 89.2798 21.9792 89.6094 21.3011C89.9427 20.6231 90.4048 20.0966 90.9957 19.7216C91.5904 19.3466 92.2817 19.1591 93.0696 19.1591C93.8575 19.1591 94.5469 19.3466 95.1378 19.7216C95.7325 20.0966 96.1946 20.6231 96.5241 21.3011C96.8575 21.9792 97.0241 22.7727 97.0241 23.6818C97.0241 24.5833 96.8575 25.3712 96.5241 26.0455C96.1946 26.7197 95.7325 27.2443 95.1378 27.6193C94.5469 27.9943 93.8575 28.1818 93.0696 28.1818ZM93.0696 26.9773C93.6681 26.9773 94.1605 26.8239 94.5469 26.517C94.9332 26.2102 95.2192 25.8068 95.4048 25.3068C95.5904 24.8068 95.6832 24.2652 95.6832 23.6818C95.6832 23.0985 95.5904 22.5549 95.4048 22.0511C95.2192 21.5473 94.9332 21.1402 94.5469 20.8295C94.1605 20.5189 93.6681 20.3636 93.0696 20.3636C92.4711 20.3636 91.9787 20.5189 91.5923 20.8295C91.206 21.1402 90.92 21.5473 90.7344 22.0511C90.5488 22.5549 90.456 23.0985 90.456 23.6818C90.456 24.2652 90.5488 24.8068 90.7344 25.3068C90.92 25.8068 91.206 26.2102 91.5923 26.517C91.9787 26.8239 92.4711 26.9773 93.0696 26.9773ZM100.412 26.0227L104.616 19.2727H106.162V28H104.821V21.25L100.639 28H99.071V19.2727H100.412V26.0227ZM103.73 16.3636H104.98C104.98 16.9773 104.768 17.4792 104.344 17.8693C103.92 18.2595 103.344 18.4545 102.616 18.4545C101.901 18.4545 101.33 18.2595 100.906 17.8693C100.486 17.4792 100.276 16.9773 100.276 16.3636H101.526C101.526 16.6591 101.607 16.9186 101.77 17.142C101.937 17.3655 102.219 17.4773 102.616 17.4773C103.014 17.4773 103.298 17.3655 103.469 17.142C103.643 16.9186 103.73 16.6591 103.73 16.3636ZM107.43 20.5227V19.2727H114.521V20.5227H111.658V28H110.317V20.5227H107.43ZM117.818 26.0227L122.023 19.2727H123.568V28H122.227V21.25L118.045 28H116.477V19.2727H117.818V26.0227ZM130.024 20.5227V19.2727H137.115V20.5227H134.251V28H132.911V20.5227H130.024ZM142.277 28.1818C141.436 28.1818 140.711 27.9962 140.101 27.625C139.495 27.25 139.027 26.7273 138.697 26.0568C138.372 25.3826 138.209 24.5985 138.209 23.7045C138.209 22.8106 138.372 22.0227 138.697 21.3409C139.027 20.6553 139.485 20.1212 140.072 19.7386C140.663 19.3523 141.353 19.1591 142.141 19.1591C142.595 19.1591 143.044 19.2348 143.487 19.3864C143.93 19.5379 144.334 19.7841 144.697 20.125C145.061 20.4621 145.351 20.9091 145.567 21.4659C145.783 22.0227 145.891 22.7083 145.891 23.5227V24.0909H139.163V22.9318H144.527C144.527 22.4394 144.429 22 144.232 21.6136C144.038 21.2273 143.762 20.9223 143.402 20.6989C143.046 20.4754 142.625 20.3636 142.141 20.3636C141.607 20.3636 141.144 20.4962 140.754 20.7614C140.368 21.0227 140.071 21.3636 139.862 21.7841C139.654 22.2045 139.55 22.6553 139.55 23.1364V23.9091C139.55 24.5682 139.663 25.1269 139.891 25.5852C140.122 26.0398 140.442 26.3864 140.851 26.625C141.26 26.8598 141.735 26.9773 142.277 26.9773C142.629 26.9773 142.947 26.928 143.232 26.8295C143.519 26.7273 143.768 26.5758 143.976 26.375C144.184 26.1705 144.345 25.9167 144.459 25.6136L145.754 25.9773C145.618 26.4167 145.389 26.803 145.067 27.1364C144.745 27.4659 144.347 27.7235 143.874 27.9091C143.4 28.0909 142.868 28.1818 142.277 28.1818ZM151.476 28.1818C150.658 28.1818 149.953 27.9886 149.362 27.6023C148.771 27.2159 148.317 26.6837 147.999 26.0057C147.68 25.3277 147.521 24.553 147.521 23.6818C147.521 22.7955 147.684 22.0133 148.01 21.3352C148.339 20.6534 148.798 20.1212 149.385 19.7386C149.976 19.3523 150.665 19.1591 151.453 19.1591C152.067 19.1591 152.62 19.2727 153.112 19.5C153.605 19.7273 154.008 20.0455 154.322 20.4545C154.637 20.8636 154.832 21.3409 154.908 21.8864H153.567C153.464 21.4886 153.237 21.1364 152.885 20.8295C152.536 20.5189 152.067 20.3636 151.476 20.3636C150.953 20.3636 150.495 20.5 150.101 20.7727C149.711 21.0417 149.406 21.4223 149.186 21.9148C148.97 22.4034 148.862 22.9773 148.862 23.6364C148.862 24.3106 148.968 24.8977 149.18 25.3977C149.396 25.8977 149.699 26.286 150.089 26.5625C150.483 26.839 150.946 26.9773 151.476 26.9773C151.824 26.9773 152.141 26.9167 152.425 26.7955C152.709 26.6742 152.949 26.5 153.146 26.2727C153.343 26.0455 153.483 25.7727 153.567 25.4545H154.908C154.832 25.9697 154.644 26.4337 154.345 26.8466C154.05 27.2557 153.658 27.5814 153.169 27.8239C152.684 28.0625 152.12 28.1818 151.476 28.1818ZM156.18 20.5227V19.2727H163.271V20.5227H160.408V28H159.067V20.5227H156.18Z" fill="white"/>
</svg>
