<svg width="232" height="70" viewBox="0 0 232 70" fill="none" xmlns="http://www.w3.org/2000/svg">
<rect width="232" height="70" rx="30" fill="#72B0F8"/>
<path d="M88.4091 14.3636H90.0909L94.0455 24.0227H94.1818L98.1364 14.3636H99.8182V26H98.5V17.1591H98.3864L94.75 26H93.4773L89.8409 17.1591H89.7273V26H88.4091V14.3636ZM106.007 26.1818C105.219 26.1818 104.528 25.9943 103.933 25.6193C103.342 25.2443 102.88 24.7197 102.547 24.0455C102.217 23.3712 102.053 22.5833 102.053 21.6818C102.053 20.7727 102.217 19.9792 102.547 19.3011C102.88 18.6231 103.342 18.0966 103.933 17.7216C104.528 17.3466 105.219 17.1591 106.007 17.1591C106.795 17.1591 107.484 17.3466 108.075 17.7216C108.67 18.0966 109.132 18.6231 109.462 19.3011C109.795 19.9792 109.962 20.7727 109.962 21.6818C109.962 22.5833 109.795 23.3712 109.462 24.0455C109.132 24.7197 108.67 25.2443 108.075 25.6193C107.484 25.9943 106.795 26.1818 106.007 26.1818ZM106.007 24.9773C106.606 24.9773 107.098 24.8239 107.484 24.517C107.871 24.2102 108.157 23.8068 108.342 23.3068C108.528 22.8068 108.621 22.2652 108.621 21.6818C108.621 21.0985 108.528 20.5549 108.342 20.0511C108.157 19.5473 107.871 19.1402 107.484 18.8295C107.098 18.5189 106.606 18.3636 106.007 18.3636C105.409 18.3636 104.916 18.5189 104.53 18.8295C104.143 19.1402 103.857 19.5473 103.672 20.0511C103.486 20.5549 103.393 21.0985 103.393 21.6818C103.393 22.2652 103.486 22.8068 103.672 23.3068C103.857 23.8068 104.143 24.2102 104.53 24.517C104.916 24.8239 105.409 24.9773 106.007 24.9773ZM113.349 24.0227L117.554 17.2727H119.099V26H117.759V19.25L113.577 26H112.009V17.2727H113.349V24.0227ZM116.668 14.3636H117.918C117.918 14.9773 117.705 15.4792 117.281 15.8693C116.857 16.2595 116.281 16.4545 115.554 16.4545C114.838 16.4545 114.268 16.2595 113.844 15.8693C113.423 15.4792 113.213 14.9773 113.213 14.3636H114.463C114.463 14.6591 114.545 14.9186 114.707 15.142C114.874 15.3655 115.156 15.4773 115.554 15.4773C115.952 15.4773 116.236 15.3655 116.406 15.142C116.58 14.9186 116.668 14.6591 116.668 14.3636ZM126.055 26V17.2727H132.919V26H131.578V18.5227H127.396V26H126.055ZM135.368 29.2727V17.2727H136.663V18.6591H136.822C136.921 18.5076 137.057 18.3144 137.232 18.0795C137.41 17.8409 137.663 17.6288 137.993 17.4432C138.326 17.2538 138.777 17.1591 139.345 17.1591C140.08 17.1591 140.728 17.3428 141.288 17.7102C141.849 18.0777 142.286 18.5985 142.601 19.2727C142.915 19.947 143.072 20.7424 143.072 21.6591C143.072 22.5833 142.915 23.3845 142.601 24.0625C142.286 24.7367 141.851 25.2595 141.294 25.6307C140.737 25.9981 140.095 26.1818 139.368 26.1818C138.807 26.1818 138.358 26.089 138.021 25.9034C137.684 25.714 137.425 25.5 137.243 25.2614C137.061 25.0189 136.921 24.8182 136.822 24.6591H136.709V29.2727H135.368ZM136.686 21.6364C136.686 22.2955 136.783 22.8769 136.976 23.3807C137.169 23.8807 137.451 24.2727 137.822 24.5568C138.194 24.8371 138.648 24.9773 139.186 24.9773C139.747 24.9773 140.214 24.8295 140.589 24.5341C140.968 24.2348 141.252 23.8333 141.442 23.3295C141.635 22.822 141.732 22.2576 141.732 21.6364C141.732 21.0227 141.637 20.4697 141.447 19.9773C141.262 19.4811 140.98 19.089 140.601 18.8011C140.226 18.5095 139.754 18.3636 139.186 18.3636C138.641 18.3636 138.182 18.5019 137.811 18.7784C137.44 19.0511 137.16 19.4337 136.97 19.9261C136.781 20.4148 136.686 20.9848 136.686 21.6364ZM148.663 26.1818C147.875 26.1818 147.184 25.9943 146.589 25.6193C145.999 25.2443 145.536 24.7197 145.203 24.0455C144.874 23.3712 144.709 22.5833 144.709 21.6818C144.709 20.7727 144.874 19.9792 145.203 19.3011C145.536 18.6231 145.999 18.0966 146.589 17.7216C147.184 17.3466 147.875 17.1591 148.663 17.1591C149.451 17.1591 150.141 17.3466 150.732 17.7216C151.326 18.0966 151.788 18.6231 152.118 19.3011C152.451 19.9792 152.618 20.7727 152.618 21.6818C152.618 22.5833 152.451 23.3712 152.118 24.0455C151.788 24.7197 151.326 25.2443 150.732 25.6193C150.141 25.9943 149.451 26.1818 148.663 26.1818ZM148.663 24.9773C149.262 24.9773 149.754 24.8239 150.141 24.517C150.527 24.2102 150.813 23.8068 150.999 23.3068C151.184 22.8068 151.277 22.2652 151.277 21.6818C151.277 21.0985 151.184 20.5549 150.999 20.0511C150.813 19.5473 150.527 19.1402 150.141 18.8295C149.754 18.5189 149.262 18.3636 148.663 18.3636C148.065 18.3636 147.572 18.5189 147.186 18.8295C146.8 19.1402 146.514 19.5473 146.328 20.0511C146.143 20.5549 146.05 21.0985 146.05 21.6818C146.05 22.2652 146.143 22.8068 146.328 23.3068C146.514 23.8068 146.8 24.2102 147.186 24.517C147.572 24.8239 148.065 24.9773 148.663 24.9773ZM160.051 17.2727V18.5227H156.006V26H154.665V17.2727H160.051ZM162.009 29.2727V17.2727H163.304V18.6591H163.463C163.562 18.5076 163.698 18.3144 163.872 18.0795C164.05 17.8409 164.304 17.6288 164.634 17.4432C164.967 17.2538 165.418 17.1591 165.986 17.1591C166.721 17.1591 167.368 17.3428 167.929 17.7102C168.49 18.0777 168.927 18.5985 169.241 19.2727C169.556 19.947 169.713 20.7424 169.713 21.6591C169.713 22.5833 169.556 23.3845 169.241 24.0625C168.927 24.7367 168.491 25.2595 167.935 25.6307C167.378 25.9981 166.736 26.1818 166.009 26.1818C165.448 26.1818 164.999 26.089 164.662 25.9034C164.325 25.714 164.065 25.5 163.884 25.2614C163.702 25.0189 163.562 24.8182 163.463 24.6591H163.349V29.2727H162.009ZM163.327 21.6364C163.327 22.2955 163.423 22.8769 163.616 23.3807C163.81 23.8807 164.092 24.2727 164.463 24.5568C164.834 24.8371 165.289 24.9773 165.827 24.9773C166.387 24.9773 166.855 24.8295 167.23 24.5341C167.609 24.2348 167.893 23.8333 168.082 23.3295C168.276 22.822 168.372 22.2576 168.372 21.6364C168.372 21.0227 168.277 20.4697 168.088 19.9773C167.902 19.4811 167.62 19.089 167.241 18.8011C166.866 18.5095 166.395 18.3636 165.827 18.3636C165.281 18.3636 164.823 18.5019 164.452 18.7784C164.08 19.0511 163.8 19.4337 163.611 19.9261C163.421 20.4148 163.327 20.9848 163.327 21.6364ZM175.418 26.1818C174.577 26.1818 173.851 25.9962 173.241 25.625C172.635 25.25 172.168 24.7273 171.838 24.0568C171.512 23.3826 171.349 22.5985 171.349 21.7045C171.349 20.8106 171.512 20.0227 171.838 19.3409C172.168 18.6553 172.626 18.1212 173.213 17.7386C173.804 17.3523 174.493 17.1591 175.281 17.1591C175.736 17.1591 176.185 17.2348 176.628 17.3864C177.071 17.5379 177.474 17.7841 177.838 18.125C178.202 18.4621 178.491 18.9091 178.707 19.4659C178.923 20.0227 179.031 20.7083 179.031 21.5227V22.0909H172.304V20.9318H177.668C177.668 20.4394 177.569 20 177.372 19.6136C177.179 19.2273 176.902 18.9223 176.543 18.6989C176.187 18.4754 175.766 18.3636 175.281 18.3636C174.747 18.3636 174.285 18.4962 173.895 18.7614C173.509 19.0227 173.211 19.3636 173.003 19.7841C172.795 20.2045 172.69 20.6553 172.69 21.1364V21.9091C172.69 22.5682 172.804 23.1269 173.031 23.5852C173.262 24.0398 173.582 24.3864 173.991 24.625C174.401 24.8598 174.876 24.9773 175.418 24.9773C175.77 24.9773 176.088 24.928 176.372 24.8295C176.66 24.7273 176.908 24.5758 177.116 24.375C177.325 24.1705 177.486 23.9167 177.599 23.6136L178.895 23.9773C178.759 24.4167 178.529 24.803 178.207 25.1364C177.885 25.4659 177.488 25.7235 177.014 25.9091C176.541 26.0909 176.009 26.1818 175.418 26.1818ZM184.616 26.1818C183.798 26.1818 183.094 25.9886 182.503 25.6023C181.912 25.2159 181.457 24.6837 181.139 24.0057C180.821 23.3277 180.662 22.553 180.662 21.6818C180.662 20.7955 180.825 20.0133 181.151 19.3352C181.48 18.6534 181.938 18.1212 182.526 17.7386C183.116 17.3523 183.806 17.1591 184.594 17.1591C185.207 17.1591 185.76 17.2727 186.253 17.5C186.745 17.7273 187.149 18.0455 187.463 18.4545C187.777 18.8636 187.973 19.3409 188.048 19.8864H186.707C186.605 19.4886 186.378 19.1364 186.026 18.8295C185.677 18.5189 185.207 18.3636 184.616 18.3636C184.094 18.3636 183.635 18.5 183.241 18.7727C182.851 19.0417 182.546 19.4223 182.327 19.9148C182.111 20.4034 182.003 20.9773 182.003 21.6364C182.003 22.3106 182.109 22.8977 182.321 23.3977C182.537 23.8977 182.84 24.286 183.23 24.5625C183.624 24.839 184.086 24.9773 184.616 24.9773C184.965 24.9773 185.281 24.9167 185.565 24.7955C185.849 24.6742 186.09 24.5 186.287 24.2727C186.484 24.0455 186.624 23.7727 186.707 23.4545H188.048C187.973 23.9697 187.785 24.4337 187.486 24.8466C187.19 25.2557 186.798 25.5814 186.31 25.8239C185.825 26.0625 185.26 26.1818 184.616 26.1818ZM193.554 26.1818C192.736 26.1818 192.031 25.9886 191.44 25.6023C190.849 25.2159 190.395 24.6837 190.077 24.0057C189.759 23.3277 189.599 22.553 189.599 21.6818C189.599 20.7955 189.762 20.0133 190.088 19.3352C190.418 18.6534 190.876 18.1212 191.463 17.7386C192.054 17.3523 192.743 17.1591 193.531 17.1591C194.145 17.1591 194.698 17.2727 195.19 17.5C195.683 17.7273 196.086 18.0455 196.401 18.4545C196.715 18.8636 196.91 19.3409 196.986 19.8864H195.645C195.543 19.4886 195.315 19.1364 194.963 18.8295C194.615 18.5189 194.145 18.3636 193.554 18.3636C193.031 18.3636 192.573 18.5 192.179 18.7727C191.789 19.0417 191.484 19.4223 191.264 19.9148C191.048 20.4034 190.94 20.9773 190.94 21.6364C190.94 22.3106 191.046 22.8977 191.259 23.3977C191.474 23.8977 191.777 24.286 192.168 24.5625C192.562 24.839 193.024 24.9773 193.554 24.9773C193.902 24.9773 194.219 24.9167 194.503 24.7955C194.787 24.6742 195.027 24.5 195.224 24.2727C195.421 24.0455 195.562 23.7727 195.645 23.4545H196.986C196.91 23.9697 196.723 24.4337 196.423 24.8466C196.128 25.2557 195.736 25.5814 195.247 25.8239C194.762 26.0625 194.198 26.1818 193.554 26.1818Z" fill="white"/>
<path d="M93.733 40H92.8523C92.8002 39.7467 92.709 39.5241 92.5788 39.3324C92.451 39.1406 92.2947 38.9796 92.1101 38.8494C91.9278 38.7169 91.7254 38.6174 91.5028 38.5511C91.2803 38.4848 91.0483 38.4517 90.8068 38.4517C90.3665 38.4517 89.9676 38.563 89.6101 38.7855C89.255 39.008 88.9721 39.3359 88.7614 39.7692C88.553 40.2024 88.4489 40.7339 88.4489 41.3636C88.4489 41.9934 88.553 42.5249 88.7614 42.9581C88.9721 43.3913 89.255 43.7192 89.6101 43.9418C89.9676 44.1643 90.3665 44.2756 90.8068 44.2756C91.0483 44.2756 91.2803 44.2424 91.5028 44.1761C91.7254 44.1098 91.9278 44.0116 92.1101 43.8814C92.2947 43.7488 92.451 43.5866 92.5788 43.3949C92.709 43.2008 92.8002 42.9782 92.8523 42.7273H93.733C93.6667 43.099 93.5459 43.4316 93.3707 43.7251C93.1955 44.0187 92.9777 44.2685 92.7173 44.4744C92.4569 44.678 92.1645 44.8331 91.8402 44.9396C91.5182 45.0462 91.1738 45.0994 90.8068 45.0994C90.1866 45.0994 89.6349 44.9479 89.152 44.6449C88.669 44.3419 88.2891 43.911 88.0121 43.3523C87.7351 42.7936 87.5966 42.1307 87.5966 41.3636C87.5966 40.5966 87.7351 39.9337 88.0121 39.375C88.2891 38.8163 88.669 38.3854 89.152 38.0824C89.6349 37.7794 90.1866 37.6278 90.8068 37.6278C91.1738 37.6278 91.5182 37.6811 91.8402 37.7876C92.1645 37.8942 92.4569 38.0504 92.7173 38.2564C92.9777 38.46 93.1955 38.7086 93.3707 39.0021C93.5459 39.2933 93.6667 39.6259 93.733 40ZM94.5595 45V44.2188H94.7583C94.9217 44.2188 95.0578 44.1868 95.1667 44.1229C95.2756 44.0566 95.3632 43.9418 95.4295 43.7784C95.4982 43.6127 95.5502 43.383 95.5858 43.0895C95.6236 42.7936 95.6509 42.4171 95.6674 41.9602L95.7669 39.5455H99.4032V45H98.5652V40.3267H96.5623L96.4771 42.2727C96.4582 42.7202 96.4179 43.1143 96.3564 43.4553C96.2972 43.7938 96.206 44.0779 96.0829 44.3075C95.9622 44.5372 95.8012 44.71 95.6 44.826C95.3987 44.942 95.1466 45 94.8436 45H94.5595ZM103.228 45.1136C102.702 45.1136 102.249 44.9976 101.868 44.7656C101.489 44.5312 101.197 44.2045 100.991 43.7855C100.787 43.3641 100.685 42.8741 100.685 42.3153C100.685 41.7566 100.787 41.2642 100.991 40.8381C101.197 40.4096 101.483 40.0758 101.85 39.8366C102.219 39.5952 102.65 39.4744 103.143 39.4744C103.427 39.4744 103.707 39.5218 103.984 39.6165C104.261 39.7112 104.513 39.8651 104.741 40.0781C104.968 40.2888 105.149 40.5682 105.284 40.9162C105.419 41.2642 105.486 41.6927 105.486 42.2017V42.5568H101.282V41.8324H104.634C104.634 41.5246 104.573 41.25 104.449 41.0085C104.329 40.767 104.156 40.5765 103.931 40.4368C103.708 40.2971 103.446 40.2273 103.143 40.2273C102.809 40.2273 102.52 40.3101 102.276 40.4759C102.035 40.6392 101.849 40.8523 101.719 41.1151C101.588 41.3778 101.523 41.6596 101.523 41.9602V42.4432C101.523 42.8551 101.594 43.2043 101.736 43.4908C101.881 43.7749 102.081 43.9915 102.336 44.1406C102.592 44.2874 102.889 44.3608 103.228 44.3608C103.448 44.3608 103.647 44.33 103.824 44.2685C104.004 44.2045 104.159 44.1098 104.29 43.9844C104.42 43.8565 104.52 43.6979 104.591 43.5085L105.401 43.7358C105.316 44.0104 105.173 44.2519 104.971 44.4602C104.77 44.6662 104.522 44.8272 104.226 44.9432C103.93 45.0568 103.597 45.1136 103.228 45.1136ZM106.179 46.5625V44.2188H106.633C106.745 44.1027 106.84 43.9773 106.921 43.8423C107.001 43.7074 107.071 43.5476 107.131 43.3629C107.192 43.1759 107.244 42.9486 107.287 42.6811C107.329 42.4112 107.367 42.0857 107.4 41.7045L107.585 39.5455H111.051V44.2188H111.889V46.5625H111.051V45H107.017V46.5625H106.179ZM107.585 44.2188H110.213V40.3267H108.366L108.224 41.7045C108.165 42.2751 108.092 42.7734 108.004 43.1996C107.916 43.6257 107.777 43.9654 107.585 44.2188ZM113.839 43.7642L116.467 39.5455H117.433V45H116.595V40.7812L113.982 45H113.001V39.5455H113.839V43.7642ZM118.226 40.3267V39.5455H122.658V40.3267H120.868V45H120.03V40.3267H118.226ZM125.884 45.1136C125.358 45.1136 124.905 44.9976 124.524 44.7656C124.145 44.5312 123.853 44.2045 123.647 43.7855C123.443 43.3641 123.341 42.8741 123.341 42.3153C123.341 41.7566 123.443 41.2642 123.647 40.8381C123.853 40.4096 124.139 40.0758 124.506 39.8366C124.876 39.5952 125.306 39.4744 125.799 39.4744C126.083 39.4744 126.363 39.5218 126.64 39.6165C126.917 39.7112 127.17 39.8651 127.397 40.0781C127.624 40.2888 127.805 40.5682 127.94 40.9162C128.075 41.2642 128.143 41.6927 128.143 42.2017V42.5568H123.938V41.8324H127.29C127.29 41.5246 127.229 41.25 127.106 41.0085C126.985 40.767 126.812 40.5765 126.587 40.4368C126.365 40.2971 126.102 40.2273 125.799 40.2273C125.465 40.2273 125.176 40.3101 124.932 40.4759C124.691 40.6392 124.505 40.8523 124.375 41.1151C124.245 41.3778 124.18 41.6596 124.18 41.9602V42.4432C124.18 42.8551 124.251 43.2043 124.393 43.4908C124.537 43.7749 124.737 43.9915 124.993 44.1406C125.248 44.2874 125.546 44.3608 125.884 44.3608C126.104 44.3608 126.303 44.33 126.481 44.2685C126.661 44.2045 126.816 44.1098 126.946 43.9844C127.076 43.8565 127.177 43.6979 127.248 43.5085L128.057 43.7358C127.972 44.0104 127.829 44.2519 127.628 44.4602C127.426 44.6662 127.178 44.8272 126.882 44.9432C126.586 45.0568 126.253 45.1136 125.884 45.1136ZM131.889 43.608H132.784C132.803 43.8542 132.914 44.0412 133.118 44.169C133.324 44.2969 133.591 44.3608 133.92 44.3608C134.256 44.3608 134.544 44.2921 134.783 44.1548C135.022 44.0152 135.142 43.7902 135.142 43.4801C135.142 43.2978 135.097 43.1392 135.007 43.0043C134.917 42.867 134.79 42.7604 134.627 42.6847C134.464 42.6089 134.271 42.571 134.048 42.571H133.111V41.8182H134.048C134.382 41.8182 134.628 41.7424 134.787 41.5909C134.948 41.4394 135.028 41.25 135.028 41.0227C135.028 40.7789 134.942 40.5836 134.769 40.4368C134.596 40.2876 134.351 40.2131 134.034 40.2131C133.714 40.2131 133.448 40.2853 133.235 40.4297C133.022 40.5717 132.909 40.7552 132.898 40.9801H132.017C132.026 40.6866 132.116 40.4273 132.287 40.2024C132.457 39.9751 132.689 39.7976 132.983 39.6697C133.276 39.5395 133.613 39.4744 133.991 39.4744C134.375 39.4744 134.707 39.5419 134.989 39.6768C135.273 39.8094 135.492 39.9905 135.646 40.2202C135.802 40.4474 135.881 40.7055 135.881 40.9943C135.881 41.3021 135.794 41.5507 135.621 41.7401C135.448 41.9295 135.232 42.0644 134.971 42.1449V42.2017C135.177 42.2159 135.356 42.2822 135.508 42.4006C135.662 42.5166 135.781 42.6693 135.866 42.8587C135.952 43.0457 135.994 43.2528 135.994 43.4801C135.994 43.8116 135.905 44.1004 135.728 44.3466C135.55 44.5904 135.306 44.7798 134.996 44.9148C134.686 45.0473 134.332 45.1136 133.934 45.1136C133.549 45.1136 133.203 45.0509 132.898 44.9254C132.592 44.7976 132.349 44.6212 132.17 44.3963C131.992 44.169 131.898 43.9062 131.889 43.608ZM138.776 45.1278C138.431 45.1278 138.117 45.0627 137.835 44.9325C137.554 44.8 137.33 44.6094 137.164 44.3608C136.999 44.1098 136.916 43.8068 136.916 43.4517C136.916 43.1392 136.977 42.8859 137.1 42.6918C137.223 42.4953 137.388 42.3414 137.594 42.2301C137.8 42.1188 138.027 42.036 138.276 41.9815C138.527 41.9247 138.779 41.8797 139.032 41.8466C139.364 41.804 139.632 41.772 139.838 41.7507C140.047 41.727 140.198 41.688 140.293 41.6335C140.39 41.5791 140.438 41.4844 140.438 41.3494V41.321C140.438 40.9706 140.343 40.6984 140.151 40.5043C139.961 40.3101 139.674 40.2131 139.288 40.2131C138.888 40.2131 138.574 40.3007 138.347 40.4759C138.119 40.651 137.96 40.8381 137.867 41.0369L137.072 40.7528C137.214 40.4214 137.403 40.1634 137.64 39.9787C137.879 39.7917 138.14 39.6615 138.421 39.5881C138.705 39.5123 138.985 39.4744 139.259 39.4744C139.435 39.4744 139.636 39.4957 139.863 39.5384C140.093 39.5786 140.314 39.6626 140.527 39.7905C140.743 39.9183 140.921 40.1113 141.063 40.3693C141.205 40.6274 141.276 40.973 141.276 41.4062V45H140.438V44.2614H140.396C140.339 44.3797 140.244 44.5064 140.112 44.6413C139.979 44.7763 139.803 44.8911 139.583 44.9858C139.362 45.0805 139.094 45.1278 138.776 45.1278ZM138.904 44.375C139.236 44.375 139.515 44.3099 139.742 44.1797C139.972 44.0495 140.145 43.8814 140.261 43.6754C140.379 43.4695 140.438 43.2528 140.438 43.0256V42.2585C140.403 42.3011 140.325 42.3402 140.204 42.3757C140.086 42.4089 139.948 42.4384 139.792 42.4645C139.638 42.4882 139.488 42.5095 139.341 42.5284C139.197 42.545 139.079 42.5592 138.99 42.571C138.772 42.5994 138.568 42.6456 138.379 42.7095C138.192 42.7711 138.04 42.8646 137.924 42.9901C137.811 43.1132 137.754 43.2812 137.754 43.4943C137.754 43.7855 137.861 44.0057 138.077 44.1548C138.295 44.3016 138.57 44.375 138.904 44.375ZM145.619 45V39.5455H149.908V45H149.07V40.3267H146.457V45H145.619ZM151.439 47.0455V39.5455H152.249V40.4119H152.348C152.41 40.3172 152.495 40.1965 152.604 40.0497C152.715 39.9006 152.874 39.768 153.08 39.652C153.288 39.5336 153.57 39.4744 153.925 39.4744C154.384 39.4744 154.789 39.5893 155.139 39.8189C155.49 40.0485 155.763 40.3741 155.96 40.7955C156.156 41.2169 156.254 41.714 156.254 42.2869C156.254 42.8646 156.156 43.3653 155.96 43.7891C155.763 44.2105 155.491 44.5372 155.143 44.7692C154.795 44.9988 154.393 45.1136 153.939 45.1136C153.589 45.1136 153.308 45.0556 153.097 44.9396C152.887 44.8213 152.724 44.6875 152.611 44.5384C152.497 44.3868 152.41 44.2614 152.348 44.1619H152.277V47.0455H151.439ZM152.263 42.2727C152.263 42.6847 152.323 43.0481 152.444 43.3629C152.565 43.6754 152.741 43.9205 152.973 44.098C153.205 44.2732 153.489 44.3608 153.825 44.3608C154.176 44.3608 154.468 44.2685 154.702 44.0838C154.939 43.8968 155.117 43.6458 155.235 43.331C155.356 43.0137 155.416 42.661 155.416 42.2727C155.416 41.8892 155.357 41.5436 155.239 41.2358C155.123 40.9257 154.946 40.6806 154.71 40.5007C154.475 40.3184 154.18 40.2273 153.825 40.2273C153.484 40.2273 153.198 40.3137 152.966 40.4865C152.734 40.657 152.559 40.8961 152.44 41.2038C152.322 41.5092 152.263 41.8655 152.263 42.2727ZM159.749 45.1136C159.256 45.1136 158.824 44.9964 158.452 44.7621C158.083 44.5277 157.794 44.1998 157.586 43.7784C157.38 43.357 157.277 42.8646 157.277 42.3011C157.277 41.733 157.38 41.237 157.586 40.8132C157.794 40.3894 158.083 40.0604 158.452 39.826C158.824 39.5916 159.256 39.4744 159.749 39.4744C160.241 39.4744 160.672 39.5916 161.041 39.826C161.413 40.0604 161.702 40.3894 161.908 40.8132C162.116 41.237 162.22 41.733 162.22 42.3011C162.22 42.8646 162.116 43.357 161.908 43.7784C161.702 44.1998 161.413 44.5277 161.041 44.7621C160.672 44.9964 160.241 45.1136 159.749 45.1136ZM159.749 44.3608C160.123 44.3608 160.43 44.2649 160.672 44.0732C160.913 43.8814 161.092 43.6293 161.208 43.3168C161.324 43.0043 161.382 42.6657 161.382 42.3011C161.382 41.9366 161.324 41.5968 161.208 41.282C161.092 40.9671 160.913 40.7126 160.672 40.5185C160.43 40.3243 160.123 40.2273 159.749 40.2273C159.375 40.2273 159.067 40.3243 158.825 40.5185C158.584 40.7126 158.405 40.9671 158.289 41.282C158.173 41.5968 158.115 41.9366 158.115 42.3011C158.115 42.6657 158.173 43.0043 158.289 43.3168C158.405 43.6293 158.584 43.8814 158.825 44.0732C159.067 44.2649 159.375 44.3608 159.749 44.3608ZM166.866 39.5455V40.3267H164.338V45H163.499V39.5455H166.866ZM168.089 47.0455V39.5455H168.899V40.4119H168.998C169.06 40.3172 169.145 40.1965 169.254 40.0497C169.365 39.9006 169.524 39.768 169.73 39.652C169.938 39.5336 170.22 39.4744 170.575 39.4744C171.034 39.4744 171.439 39.5893 171.79 39.8189C172.14 40.0485 172.413 40.3741 172.61 40.7955C172.806 41.2169 172.905 41.714 172.905 42.2869C172.905 42.8646 172.806 43.3653 172.61 43.7891C172.413 44.2105 172.141 44.5372 171.793 44.7692C171.445 44.9988 171.044 45.1136 170.589 45.1136C170.239 45.1136 169.958 45.0556 169.748 44.9396C169.537 44.8213 169.375 44.6875 169.261 44.5384C169.148 44.3868 169.06 44.2614 168.998 44.1619H168.927V47.0455H168.089ZM168.913 42.2727C168.913 42.6847 168.974 43.0481 169.094 43.3629C169.215 43.6754 169.391 43.9205 169.623 44.098C169.855 44.2732 170.14 44.3608 170.476 44.3608C170.826 44.3608 171.118 44.2685 171.353 44.0838C171.59 43.8968 171.767 43.6458 171.885 43.331C172.006 43.0137 172.067 42.661 172.067 42.2727C172.067 41.8892 172.007 41.5436 171.889 41.2358C171.773 40.9257 171.597 40.6806 171.36 40.5007C171.126 40.3184 170.831 40.2273 170.476 40.2273C170.135 40.2273 169.848 40.3137 169.616 40.4865C169.384 40.657 169.209 40.8961 169.091 41.2038C168.972 41.5092 168.913 41.8655 168.913 42.2727ZM176.47 45.1136C175.944 45.1136 175.491 44.9976 175.11 44.7656C174.731 44.5312 174.439 44.2045 174.233 43.7855C174.029 43.3641 173.927 42.8741 173.927 42.3153C173.927 41.7566 174.029 41.2642 174.233 40.8381C174.439 40.4096 174.725 40.0758 175.092 39.8366C175.461 39.5952 175.892 39.4744 176.385 39.4744C176.669 39.4744 176.949 39.5218 177.226 39.6165C177.503 39.7112 177.756 39.8651 177.983 40.0781C178.21 40.2888 178.391 40.5682 178.526 40.9162C178.661 41.2642 178.729 41.6927 178.729 42.2017V42.5568H174.524V41.8324H177.876C177.876 41.5246 177.815 41.25 177.692 41.0085C177.571 40.767 177.398 40.5765 177.173 40.4368C176.951 40.2971 176.688 40.2273 176.385 40.2273C176.051 40.2273 175.762 40.3101 175.518 40.4759C175.277 40.6392 175.091 40.8523 174.961 41.1151C174.831 41.3778 174.765 41.6596 174.765 41.9602V42.4432C174.765 42.8551 174.836 43.2043 174.979 43.4908C175.123 43.7749 175.323 43.9915 175.579 44.1406C175.834 44.2874 176.131 44.3608 176.47 44.3608C176.69 44.3608 176.889 44.33 177.067 44.2685C177.247 44.2045 177.402 44.1098 177.532 43.9844C177.662 43.8565 177.763 43.6979 177.834 43.5085L178.643 43.7358C178.558 44.0104 178.415 44.2519 178.214 44.4602C178.012 44.6662 177.764 44.8272 177.468 44.9432C177.172 45.0568 176.839 45.1136 176.47 45.1136ZM182.219 45.1136C181.708 45.1136 181.268 44.9929 180.898 44.7514C180.529 44.5099 180.245 44.1773 180.046 43.7536C179.847 43.3298 179.748 42.8456 179.748 42.3011C179.748 41.7472 179.849 41.2583 180.053 40.8345C180.259 40.4084 180.546 40.0758 180.912 39.8366C181.282 39.5952 181.713 39.4744 182.205 39.4744C182.589 39.4744 182.934 39.5455 183.242 39.6875C183.55 39.8295 183.802 40.0284 183.998 40.2841C184.195 40.5398 184.317 40.8381 184.364 41.179H183.526C183.462 40.9304 183.32 40.7102 183.1 40.5185C182.882 40.3243 182.589 40.2273 182.219 40.2273C181.893 40.2273 181.606 40.3125 181.36 40.483C181.116 40.651 180.925 40.889 180.788 41.1967C180.653 41.5021 180.586 41.8608 180.586 42.2727C180.586 42.6941 180.652 43.0611 180.785 43.3736C180.92 43.6861 181.109 43.9287 181.353 44.1016C181.599 44.2744 181.888 44.3608 182.219 44.3608C182.437 44.3608 182.635 44.3229 182.812 44.2472C182.99 44.1714 183.14 44.0625 183.263 43.9205C183.386 43.7784 183.474 43.608 183.526 43.4091H184.364C184.317 43.7311 184.2 44.0211 184.013 44.2791C183.828 44.5348 183.583 44.7384 183.278 44.8899C182.974 45.0391 182.622 45.1136 182.219 45.1136ZM187.805 45.1136C187.294 45.1136 186.854 44.9929 186.484 44.7514C186.115 44.5099 185.831 44.1773 185.632 43.7536C185.433 43.3298 185.334 42.8456 185.334 42.3011C185.334 41.7472 185.435 41.2583 185.639 40.8345C185.845 40.4084 186.131 40.0758 186.498 39.8366C186.868 39.5952 187.299 39.4744 187.791 39.4744C188.175 39.4744 188.52 39.5455 188.828 39.6875C189.136 39.8295 189.388 40.0284 189.584 40.2841C189.781 40.5398 189.903 40.8381 189.95 41.179H189.112C189.048 40.9304 188.906 40.7102 188.686 40.5185C188.468 40.3243 188.175 40.2273 187.805 40.2273C187.479 40.2273 187.192 40.3125 186.946 40.483C186.702 40.651 186.511 40.889 186.374 41.1967C186.239 41.5021 186.172 41.8608 186.172 42.2727C186.172 42.6941 186.238 43.0611 186.371 43.3736C186.506 43.6861 186.695 43.9287 186.939 44.1016C187.185 44.2744 187.474 44.3608 187.805 44.3608C188.023 44.3608 188.221 44.3229 188.398 44.2472C188.576 44.1714 188.726 44.0625 188.849 43.9205C188.972 43.7784 189.06 43.608 189.112 43.4091H189.95C189.903 43.7311 189.786 44.0211 189.599 44.2791C189.414 44.5348 189.169 44.7384 188.863 44.8899C188.56 45.0391 188.208 45.1136 187.805 45.1136ZM193.391 45.1136C192.899 45.1136 192.467 44.9964 192.095 44.7621C191.726 44.5277 191.437 44.1998 191.229 43.7784C191.023 43.357 190.92 42.8646 190.92 42.3011C190.92 41.733 191.023 41.237 191.229 40.8132C191.437 40.3894 191.726 40.0604 192.095 39.826C192.467 39.5916 192.899 39.4744 193.391 39.4744C193.884 39.4744 194.314 39.5916 194.684 39.826C195.055 40.0604 195.344 40.3894 195.55 40.8132C195.759 41.237 195.863 41.733 195.863 42.3011C195.863 42.8646 195.759 43.357 195.55 43.7784C195.344 44.1998 195.055 44.5277 194.684 44.7621C194.314 44.9964 193.884 45.1136 193.391 45.1136ZM193.391 44.3608C193.765 44.3608 194.073 44.2649 194.314 44.0732C194.556 43.8814 194.735 43.6293 194.851 43.3168C194.967 43.0043 195.025 42.6657 195.025 42.3011C195.025 41.9366 194.967 41.5968 194.851 41.282C194.735 40.9671 194.556 40.7126 194.314 40.5185C194.073 40.3243 193.765 40.2273 193.391 40.2273C193.017 40.2273 192.709 40.3243 192.468 40.5185C192.226 40.7126 192.048 40.9671 191.932 41.282C191.816 41.5968 191.758 41.9366 191.758 42.3011C191.758 42.6657 191.816 43.0043 191.932 43.3168C192.048 43.6293 192.226 43.8814 192.468 44.0732C192.709 44.2649 193.017 44.3608 193.391 44.3608ZM200.125 43.8636L202.028 39.5455H202.824L200.466 45H199.784L197.469 39.5455H198.25L200.125 43.8636ZM197.98 39.5455V45H197.142V39.5455H197.98ZM202.27 45V39.5455H203.108V45H202.27ZM88.6051 55.7642L91.233 51.5455H92.1989V57H91.3608V52.7812L88.7472 57H87.767V51.5455H88.6051V55.7642ZM96.5463 57V51.5455H98.7765C99.3636 51.5455 99.83 51.678 100.176 51.9432C100.521 52.2083 100.694 52.5587 100.694 52.9943C100.694 53.3258 100.596 53.5826 100.399 53.7649C100.203 53.9448 99.9507 54.0668 99.6429 54.1307C99.8442 54.1591 100.039 54.2301 100.229 54.3438C100.421 54.4574 100.579 54.6136 100.705 54.8125C100.83 55.009 100.893 55.2505 100.893 55.5369C100.893 55.8163 100.822 56.0661 100.68 56.2862C100.538 56.5064 100.334 56.6804 100.069 56.8082C99.8039 56.9361 99.4867 57 99.1174 57H96.5463ZM97.3418 56.233H99.1174C99.4062 56.233 99.6323 56.1643 99.7956 56.027C99.959 55.8897 100.041 55.7027 100.041 55.4659C100.041 55.1842 99.959 54.9628 99.7956 54.8018C99.6323 54.6385 99.4062 54.5568 99.1174 54.5568H97.3418V56.233ZM97.3418 53.8324H98.7765C99.0014 53.8324 99.1943 53.8016 99.3553 53.7401C99.5163 53.6761 99.6394 53.5862 99.7246 53.4702C99.8122 53.3518 99.856 53.2121 99.856 53.0511C99.856 52.8215 99.7601 52.6416 99.5684 52.5114C99.3766 52.3788 99.1126 52.3125 98.7765 52.3125H97.3418V53.8324ZM103.767 57.1278C103.421 57.1278 103.107 57.0627 102.826 56.9325C102.544 56.8 102.32 56.6094 102.154 56.3608C101.989 56.1098 101.906 55.8068 101.906 55.4517C101.906 55.1392 101.967 54.8859 102.091 54.6918C102.214 54.4953 102.378 54.3414 102.584 54.2301C102.79 54.1188 103.017 54.036 103.266 53.9815C103.517 53.9247 103.769 53.8797 104.022 53.8466C104.354 53.804 104.623 53.772 104.828 53.7507C105.037 53.727 105.188 53.688 105.283 53.6335C105.38 53.5791 105.429 53.4844 105.429 53.3494V53.321C105.429 52.9706 105.333 52.6984 105.141 52.5043C104.952 52.3101 104.664 52.2131 104.278 52.2131C103.878 52.2131 103.564 52.3007 103.337 52.4759C103.11 52.651 102.95 52.8381 102.858 53.0369L102.062 52.7528C102.204 52.4214 102.394 52.1634 102.63 51.9787C102.869 51.7917 103.13 51.6615 103.412 51.5881C103.696 51.5123 103.975 51.4744 104.25 51.4744C104.425 51.4744 104.626 51.4957 104.853 51.5384C105.083 51.5786 105.304 51.6626 105.517 51.7905C105.733 51.9183 105.912 52.1113 106.054 52.3693C106.196 52.6274 106.267 52.973 106.267 53.4062V57H105.429V56.2614H105.386C105.329 56.3797 105.234 56.5064 105.102 56.6413C104.969 56.7763 104.793 56.8911 104.573 56.9858C104.353 57.0805 104.084 57.1278 103.767 57.1278ZM103.895 56.375C104.226 56.375 104.505 56.3099 104.733 56.1797C104.962 56.0495 105.135 55.8814 105.251 55.6754C105.369 55.4695 105.429 55.2528 105.429 55.0256V54.2585C105.393 54.3011 105.315 54.3402 105.194 54.3757C105.076 54.4089 104.939 54.4384 104.782 54.4645C104.628 54.4882 104.478 54.5095 104.331 54.5284C104.187 54.545 104.07 54.5592 103.98 54.571C103.762 54.5994 103.558 54.6456 103.369 54.7095C103.182 54.7711 103.03 54.8646 102.914 54.9901C102.801 55.1132 102.744 55.2812 102.744 55.4943C102.744 55.7855 102.852 56.0057 103.067 56.1548C103.285 56.3016 103.561 56.375 103.895 56.375ZM107.796 51.5455H108.634V56.2188H110.694V51.5455H111.532V56.2188H113.592V51.5455H114.43V57H107.796V51.5455ZM116.798 55.7642L119.426 51.5455H120.392V57H119.554V52.7812L116.941 57H115.96V51.5455H116.798V55.7642ZM124.91 55.8636L126.814 51.5455H127.609L125.251 57H124.569L122.254 51.5455H123.035L124.91 55.8636ZM122.765 51.5455V57H121.927V51.5455H122.765ZM127.055 57V51.5455H127.893V57H127.055ZM134.456 57.1136C133.944 57.1136 133.504 56.9929 133.135 56.7514C132.765 56.5099 132.481 56.1773 132.282 55.7536C132.083 55.3298 131.984 54.8456 131.984 54.3011C131.984 53.7472 132.086 53.2583 132.289 52.8345C132.495 52.4084 132.782 52.0758 133.149 51.8366C133.518 51.5952 133.949 51.4744 134.441 51.4744C134.825 51.4744 135.171 51.5455 135.478 51.6875C135.786 51.8295 136.038 52.0284 136.235 52.2841C136.431 52.5398 136.553 52.8381 136.6 53.179H135.762C135.699 52.9304 135.556 52.7102 135.336 52.5185C135.118 52.3243 134.825 52.2273 134.456 52.2273C134.129 52.2273 133.842 52.3125 133.596 52.483C133.352 52.651 133.162 52.889 133.025 53.1967C132.89 53.5021 132.822 53.8608 132.822 54.2727C132.822 54.6941 132.888 55.0611 133.021 55.3736C133.156 55.6861 133.345 55.9287 133.589 56.1016C133.835 56.2744 134.124 56.3608 134.456 56.3608C134.673 56.3608 134.871 56.3229 135.049 56.2472C135.226 56.1714 135.377 56.0625 135.5 55.9205C135.623 55.7784 135.71 55.608 135.762 55.4091H136.6C136.553 55.7311 136.436 56.0211 136.249 56.2791C136.064 56.5348 135.819 56.7384 135.514 56.8899C135.211 57.0391 134.858 57.1136 134.456 57.1136ZM140.042 57.1136C139.549 57.1136 139.117 56.9964 138.745 56.7621C138.376 56.5277 138.087 56.1998 137.879 55.7784C137.673 55.357 137.57 54.8646 137.57 54.3011C137.57 53.733 137.673 53.237 137.879 52.8132C138.087 52.3894 138.376 52.0604 138.745 51.826C139.117 51.5916 139.549 51.4744 140.042 51.4744C140.534 51.4744 140.965 51.5916 141.334 51.826C141.706 52.0604 141.995 52.3894 142.201 52.8132C142.409 53.237 142.513 53.733 142.513 54.3011C142.513 54.8646 142.409 55.357 142.201 55.7784C141.995 56.1998 141.706 56.5277 141.334 56.7621C140.965 56.9964 140.534 57.1136 140.042 57.1136ZM140.042 56.3608C140.416 56.3608 140.723 56.2649 140.965 56.0732C141.206 55.8814 141.385 55.6293 141.501 55.3168C141.617 55.0043 141.675 54.6657 141.675 54.3011C141.675 53.9366 141.617 53.5968 141.501 53.282C141.385 52.9671 141.206 52.7126 140.965 52.5185C140.723 52.3243 140.416 52.2273 140.042 52.2273C139.667 52.2273 139.36 52.3243 139.118 52.5185C138.877 52.7126 138.698 52.9671 138.582 53.282C138.466 53.5968 138.408 53.9366 138.408 54.3011C138.408 54.6657 138.466 55.0043 138.582 55.3168C138.698 55.6293 138.877 55.8814 139.118 56.0732C139.36 56.2649 139.667 56.3608 140.042 56.3608ZM146.008 57.1136C145.497 57.1136 145.057 56.9929 144.687 56.7514C144.318 56.5099 144.034 56.1773 143.835 55.7536C143.636 55.3298 143.537 54.8456 143.537 54.3011C143.537 53.7472 143.639 53.2583 143.842 52.8345C144.048 52.4084 144.335 52.0758 144.702 51.8366C145.071 51.5952 145.502 51.4744 145.994 51.4744C146.378 51.4744 146.723 51.5455 147.031 51.6875C147.339 51.8295 147.591 52.0284 147.787 52.2841C147.984 52.5398 148.106 52.8381 148.153 53.179H147.315C147.251 52.9304 147.109 52.7102 146.889 52.5185C146.671 52.3243 146.378 52.2273 146.008 52.2273C145.682 52.2273 145.395 52.3125 145.149 52.483C144.905 52.651 144.715 52.889 144.577 53.1967C144.442 53.5021 144.375 53.8608 144.375 54.2727C144.375 54.6941 144.441 55.0611 144.574 55.3736C144.709 55.6861 144.898 55.9287 145.142 56.1016C145.388 56.2744 145.677 56.3608 146.008 56.3608C146.226 56.3608 146.424 56.3229 146.601 56.2472C146.779 56.1714 146.929 56.0625 147.052 55.9205C147.175 55.7784 147.263 55.608 147.315 55.4091H148.153C148.106 55.7311 147.989 56.0211 147.802 56.2791C147.617 56.5348 147.372 56.7384 147.067 56.8899C146.764 57.0391 146.411 57.1136 146.008 57.1136ZM148.949 52.3267V51.5455H153.381V52.3267H151.591V57H150.753V52.3267H148.949ZM156.536 57.1136C156.043 57.1136 155.611 56.9964 155.24 56.7621C154.87 56.5277 154.581 56.1998 154.373 55.7784C154.167 55.357 154.064 54.8646 154.064 54.3011C154.064 53.733 154.167 53.237 154.373 52.8132C154.581 52.3894 154.87 52.0604 155.24 51.826C155.611 51.5916 156.043 51.4744 156.536 51.4744C157.028 51.4744 157.459 51.5916 157.828 51.826C158.2 52.0604 158.489 52.3894 158.695 52.8132C158.903 53.237 159.007 53.733 159.007 54.3011C159.007 54.8646 158.903 55.357 158.695 55.7784C158.489 56.1998 158.2 56.5277 157.828 56.7621C157.459 56.9964 157.028 57.1136 156.536 57.1136ZM156.536 56.3608C156.91 56.3608 157.218 56.2649 157.459 56.0732C157.7 55.8814 157.879 55.6293 157.995 55.3168C158.111 55.0043 158.169 54.6657 158.169 54.3011C158.169 53.9366 158.111 53.5968 157.995 53.282C157.879 52.9671 157.7 52.7126 157.459 52.5185C157.218 52.3243 156.91 52.2273 156.536 52.2273C156.162 52.2273 155.854 52.3243 155.612 52.5185C155.371 52.7126 155.192 52.9671 155.076 53.282C154.96 53.5968 154.902 53.9366 154.902 54.3011C154.902 54.6657 154.96 55.0043 155.076 55.3168C155.192 55.6293 155.371 55.8814 155.612 56.0732C155.854 56.2649 156.162 56.3608 156.536 56.3608ZM163.568 57V52.3125H162.119C161.792 52.3125 161.535 52.3883 161.348 52.5398C161.161 52.6913 161.068 52.8996 161.068 53.1648C161.068 53.4252 161.152 53.63 161.32 53.7791C161.49 53.9283 161.724 54.0028 162.02 54.0028H163.781V54.7841H162.02C161.65 54.7841 161.332 54.719 161.064 54.5888C160.797 54.4586 160.591 54.2727 160.446 54.0312C160.302 53.7874 160.23 53.4986 160.23 53.1648C160.23 52.8286 160.306 52.5398 160.457 52.2983C160.609 52.0568 160.825 51.871 161.107 51.7408C161.391 51.6106 161.728 51.5455 162.119 51.5455H164.363V57H163.568ZM159.931 57L161.48 54.2869H162.389L160.841 57H159.931ZM166.74 55.7642L169.368 51.5455H170.334V57H169.496V52.7812L166.882 57H165.902V51.5455H166.74V55.7642ZM175.519 53.8892V54.6705H172.508V53.8892H175.519ZM172.707 51.5455V57H171.869V51.5455H172.707ZM176.158 51.5455V57H175.32V51.5455H176.158ZM178.527 55.7642L181.155 51.5455H182.121V57H181.283V52.7812L178.669 57H177.689V51.5455H178.527V55.7642ZM185.943 57.1136C185.417 57.1136 184.964 56.9976 184.583 56.7656C184.204 56.5312 183.911 56.2045 183.705 55.7855C183.502 55.3641 183.4 54.8741 183.4 54.3153C183.4 53.7566 183.502 53.2642 183.705 52.8381C183.911 52.4096 184.198 52.0758 184.565 51.8366C184.934 51.5952 185.365 51.4744 185.857 51.4744C186.142 51.4744 186.422 51.5218 186.699 51.6165C186.976 51.7112 187.228 51.8651 187.455 52.0781C187.683 52.2888 187.864 52.5682 187.999 52.9162C188.134 53.2642 188.201 53.6927 188.201 54.2017V54.5568H183.997V53.8324H187.349C187.349 53.5246 187.287 53.25 187.164 53.0085C187.044 52.767 186.871 52.5765 186.646 52.4368C186.423 52.2971 186.16 52.2273 185.857 52.2273C185.524 52.2273 185.235 52.3101 184.991 52.4759C184.749 52.6392 184.564 52.8523 184.433 53.1151C184.303 53.3778 184.238 53.6596 184.238 53.9602V54.4432C184.238 54.8551 184.309 55.2043 184.451 55.4908C184.596 55.7749 184.796 55.9915 185.051 56.1406C185.307 56.2874 185.604 56.3608 185.943 56.3608C186.163 56.3608 186.362 56.33 186.539 56.2685C186.719 56.2045 186.874 56.1098 187.004 55.9844C187.135 55.8565 187.235 55.6979 187.306 55.5085L188.116 55.7358C188.031 56.0104 187.887 56.2519 187.686 56.4602C187.485 56.6662 187.236 56.8272 186.941 56.9432C186.645 57.0568 186.312 57.1136 185.943 57.1136ZM192.459 55.8636L194.362 51.5455H195.158L192.8 57H192.118L189.803 51.5455H190.584L192.459 55.8636ZM190.314 51.5455V57H189.476V51.5455H190.314ZM194.604 57V51.5455H195.442V57H194.604ZM198.084 49.7273L198.013 54.9545H197.189L197.118 49.7273H198.084ZM197.601 57.0568C197.426 57.0568 197.276 56.9941 197.15 56.8686C197.025 56.7431 196.962 56.5928 196.962 56.4176C196.962 56.2424 197.025 56.0921 197.15 55.9666C197.276 55.8411 197.426 55.7784 197.601 55.7784C197.776 55.7784 197.927 55.8411 198.052 55.9666C198.177 56.0921 198.24 56.2424 198.24 56.4176C198.24 56.5336 198.211 56.6402 198.151 56.7372C198.095 56.8343 198.018 56.9124 197.921 56.9716C197.826 57.0284 197.719 57.0568 197.601 57.0568Z" fill="white"/>
<path d="M48 11C61.2548 11 72 21.7452 72 35C72 48.2548 61.2548 59 48 59C34.7452 59 24 48.2548 24 35C24 21.7452 34.7452 11 48 11ZM48 52.9684C57.9236 52.9684 65.9684 44.9236 65.9684 35C65.9684 25.0764 57.9236 17.0316 48 17.0316C38.0764 17.0316 30.0316 25.0764 30.0316 35C30.0316 44.9236 38.0764 52.9684 48 52.9684Z" fill="#38F8FE"/>
<circle cx="47.9999" cy="34.9999" r="10.4789" fill="#FAFEFE"/>
<path d="M26.8278 23.6978C24.887 27.3336 23.9151 31.408 24.0058 35.5284C24.0966 39.6488 25.2468 43.6764 27.3459 47.2232C29.4449 50.7701 32.422 53.7166 35.9902 55.779C39.5585 57.8414 43.5978 58.9501 47.7189 58.9984C51.84 59.0466 55.9041 58.0328 59.5197 56.0546C63.1353 54.0764 66.1806 51.2004 68.3621 47.7037C70.5437 44.207 71.788 40.2074 71.9752 36.0903C72.1166 32.9808 71.6515 29.8834 70.6161 26.968C70.0587 25.3984 68.2254 24.8046 66.7381 25.5544C65.2508 26.3041 64.68 28.1143 65.1708 29.706C65.778 31.6756 66.0441 33.7423 65.9498 35.8163C65.8096 38.8987 64.878 41.8931 63.2448 44.511C61.6115 47.1289 59.3316 49.2821 56.6246 50.7632C53.9177 52.2442 50.875 53.0033 47.7895 52.9671C44.7041 52.931 41.68 52.1009 39.0085 50.5568C36.337 49.0128 34.1082 46.8068 32.5366 44.1513C30.9651 41.4959 30.1039 38.4805 30.036 35.3956C29.9681 32.3107 30.6957 29.2603 32.1488 26.5383L26.8278 23.6978Z" fill="white"/>
<path d="M44.8971 11.2015C40.6345 11.7572 36.5993 13.4476 33.2133 16.0961C30.622 18.123 28.4838 20.654 26.9209 23.5249C26.1245 24.9878 26.9064 26.7491 28.4575 27.3559C30.0087 27.9626 31.7374 27.179 32.5948 25.751C33.7229 23.872 35.1898 22.2077 36.9295 20.847C39.4645 18.8641 42.4855 17.5986 45.6769 17.1825L44.8971 11.2015Z" fill="#38F8FE"/>
<path d="M57.2878 53.8168C58.025 55.3104 59.8468 55.9387 61.2362 55.0201C65.0806 52.4784 68.1311 48.8698 69.993 44.6077C72.2594 39.4197 72.6188 33.5976 71.0077 28.1703C69.3966 22.743 65.9188 18.0599 61.1889 14.9488C57.3031 12.3928 52.7778 11.033 48.1693 11.0005C46.5037 10.9888 45.3198 12.5094 45.5169 14.1633C45.714 15.8172 47.2207 16.9714 48.8843 17.0534C52.0712 17.2104 55.1783 18.2147 57.8743 19.988C61.4155 22.3173 64.0193 25.8234 65.2254 29.8867C66.4316 33.95 66.1625 38.309 64.4658 42.1931C63.174 45.1501 61.118 47.6871 58.533 49.5575C57.1836 50.5338 56.5506 52.3232 57.2878 53.8168Z" fill="#35DCE0"/>
<path d="M27.3459 47.2232C25.2469 43.6764 24.0966 39.6488 24.0059 35.5284L30.036 35.3956C30.104 38.4805 30.9652 41.4959 32.5367 44.1513C34.1082 46.8068 36.3371 49.0128 39.0086 50.5568C41.6801 52.1009 44.7042 52.931 47.7896 52.9671C50.875 53.0033 53.9177 52.2442 56.6247 50.7632C59.3316 49.2821 61.6115 47.1289 63.2448 44.511C64.8781 41.8931 65.8097 38.8987 65.9499 35.8163C66.0442 33.7423 65.7781 31.6756 65.1708 29.706C64.6801 28.1143 65.2508 26.3041 66.7381 25.5544C68.2254 24.8046 70.0587 25.3985 70.6161 26.968C71.6515 29.8834 72.1167 32.9808 71.9753 36.0903C71.788 40.2074 70.5437 44.207 68.3622 47.7037C66.1806 51.2004 63.1354 54.0764 59.5198 56.0546C55.9042 58.0328 51.8401 59.0466 47.7189 58.9984C43.5978 58.9501 39.5586 57.8414 35.9903 55.779C32.422 53.7166 29.445 50.7701 27.3459 47.2232Z" fill="white"/>
</svg>
